<svg width="32" height="32" viewBox="0 0 32 32" fill="none" xmlns="http://www.w3.org/2000/svg">
<path d="M8 10.1511C8 9.63799 8.18019 9.2147 8.54054 8.88122C8.9009 8.54772 9.36937 8.38098 9.94595 8.38098C10.5122 8.38098 10.9704 8.54515 11.3205 8.87353C11.6808 9.21215 11.861 9.65338 11.861 10.1972C11.861 10.6898 11.686 11.1002 11.3359 11.4286C10.9756 11.7672 10.5019 11.9365 9.91506 11.9365H9.89961C9.33333 11.9365 8.87517 11.7672 8.5251 11.4286C8.17503 11.09 8 10.6641 8 10.1511ZM8.20077 23.6191V13.3372H11.6293V23.6191H8.20077ZM13.529 23.6191H16.9575V17.8779C16.9575 17.5187 16.9987 17.2416 17.0811 17.0467C17.2252 16.6978 17.444 16.4028 17.7375 16.1616C18.0309 15.9205 18.399 15.7999 18.8417 15.7999C19.9949 15.7999 20.5714 16.5747 20.5714 18.1241V23.6191H24V17.7239C24 16.2052 23.6396 15.0534 22.9189 14.2684C22.1982 13.4834 21.2458 13.0909 20.0618 13.0909C18.7336 13.0909 17.6988 13.6604 16.9575 14.7994V14.8302H16.9421L16.9575 14.7994V13.3372H13.529C13.5495 13.6656 13.5598 14.6866 13.5598 16.4002C13.5598 18.1139 13.5495 20.5201 13.529 23.6191Z" fill="#807F86"/>
</svg>
