<svg width="51" height="48" viewBox="0 0 51 48" fill="none" xmlns="http://www.w3.org/2000/svg">
<mask id="path-1-inside-1_4076_1105" fill="white">
<path d="M7.19225 24.7845C6.80022 24.3954 6.80022 23.7647 7.19225 23.3757L10.8528 19.7432C13.205 17.4091 17.0186 17.4091 19.3707 19.7432L23.0313 23.3757C23.4234 23.7647 23.4234 24.3954 23.0313 24.7845L19.3707 28.4169C17.0186 30.751 13.205 30.751 10.8528 28.4169L7.19225 24.7845Z"/>
</mask>
<path d="M7.19225 24.7845C6.80022 24.3954 6.80022 23.7647 7.19225 23.3757L10.8528 19.7432C13.205 17.4091 17.0186 17.4091 19.3707 19.7432L23.0313 23.3757C23.4234 23.7647 23.4234 24.3954 23.0313 24.7845L19.3707 28.4169C17.0186 30.751 13.205 30.751 10.8528 28.4169L7.19225 24.7845Z" stroke="#3A3845" stroke-width="5" mask="url(#path-1-inside-1_4076_1105)"/>
<mask id="path-2-inside-2_4076_1105" fill="white">
<path d="M27.4969 24.7845C27.1049 24.3954 27.1049 23.7647 27.4969 23.3757L31.1575 19.7432C33.5097 17.4091 37.3233 17.4091 39.6754 19.7432L43.336 23.3757C43.728 23.7647 43.728 24.3954 43.336 24.7845L39.6754 28.4169C37.3233 30.751 33.5097 30.751 31.1575 28.4169L27.4969 24.7845Z"/>
</mask>
<path d="M27.4969 24.7845C27.1049 24.3954 27.1049 23.7647 27.4969 23.3757L31.1575 19.7432C33.5097 17.4091 37.3233 17.4091 39.6754 19.7432L43.336 23.3757C43.728 23.7647 43.728 24.3954 43.336 24.7845L39.6754 28.4169C37.3233 30.751 33.5097 30.751 31.1575 28.4169L27.4969 24.7845Z" stroke="#3A3845" stroke-width="5" mask="url(#path-2-inside-2_4076_1105)"/>
<mask id="path-3-inside-3_4076_1105" fill="white">
<path d="M24.5538 6.14749C24.9459 5.75847 25.5815 5.75848 25.9735 6.14749L29.6341 9.77996C31.9862 12.1141 31.9862 15.8984 29.6341 18.2325L25.9735 21.8649C25.5815 22.254 24.9459 22.254 24.5538 21.8649L20.8933 18.2325C18.5411 15.8984 18.5411 12.1141 20.8933 9.77996L24.5538 6.14749Z"/>
</mask>
<path d="M24.5538 6.14749C24.9459 5.75847 25.5815 5.75848 25.9735 6.14749L29.6341 9.77996C31.9862 12.1141 31.9862 15.8984 29.6341 18.2325L25.9735 21.8649C25.5815 22.254 24.9459 22.254 24.5538 21.8649L20.8933 18.2325C18.5411 15.8984 18.5411 12.1141 20.8933 9.77996L24.5538 6.14749Z" stroke="#3A3845" stroke-width="5" mask="url(#path-3-inside-3_4076_1105)"/>
<mask id="path-4-inside-4_4076_1105" fill="white">
<path d="M24.421 25.2952C24.8131 24.9062 25.4487 24.9062 25.8407 25.2952L29.5013 28.9277C31.8534 31.2618 31.8534 35.0461 29.5013 37.3802L25.8407 41.0126C25.4487 41.4017 24.8131 41.4017 24.421 41.0126L20.7605 37.3802C18.4083 35.0461 18.4083 31.2618 20.7605 28.9277L24.421 25.2952Z"/>
</mask>
<path d="M24.421 25.2952C24.8131 24.9062 25.4487 24.9062 25.8407 25.2952L29.5013 28.9277C31.8534 31.2618 31.8534 35.0461 29.5013 37.3802L25.8407 41.0126C25.4487 41.4017 24.8131 41.4017 24.421 41.0126L20.7605 37.3802C18.4083 35.0461 18.4083 31.2618 20.7605 28.9277L24.421 25.2952Z" stroke="#3A3845" stroke-width="5" mask="url(#path-4-inside-4_4076_1105)"/>
<path d="M29.9463 1.31152C31.3299 1.19753 32.5066 1.21605 33.5918 1.59863C34.2991 1.84801 34.8299 2.41908 35.5098 3.34668C36.1192 4.17816 36.9125 5.41414 38.0654 6.2207C39.343 7.11436 41.0596 7.72 42.3193 8.25098C43.7416 8.85047 44.5994 9.35568 44.9688 9.96777C45.4454 10.7578 45.6857 11.741 45.9043 13.0059C46.112 14.2079 46.3027 15.6962 46.7461 17.1494C47.1419 18.4466 47.9808 19.8087 48.5625 20.8975C49.2032 22.0967 49.6152 23.0858 49.6152 24C49.6152 24.8711 49.2371 25.6452 48.6113 26.625C48.0395 27.5203 47.1597 28.7073 46.7461 30.0625C46.2886 31.5618 46.2072 33.2719 46.0557 34.5869C45.8919 36.0078 45.6465 37.1031 45.0322 37.9375C44.4221 38.7661 43.4406 39.3395 42.1309 39.9355C40.9217 40.4858 39.3245 41.09 38.0654 41.9707C36.9287 42.7658 36.1387 43.9337 35.5283 44.7236C34.858 45.5911 34.3231 46.1436 33.5918 46.4014C32.5066 46.7839 31.3299 46.8025 29.9463 46.6885C28.6473 46.5814 26.9992 46.3301 25.4326 46.3301C23.8661 46.3301 22.218 46.5814 20.9189 46.6885C19.5355 46.8025 18.3586 46.7838 17.2734 46.4014C16.2845 46.0527 15.4884 45.4338 14.6338 44.6279C13.8311 43.871 12.8605 42.8198 11.7607 41.9951C10.6879 41.1906 9.36212 40.528 8.34863 39.9424C7.25988 39.3133 6.40324 38.7134 5.83203 37.9375C5.17992 37.0516 4.83035 35.896 4.54883 34.4854C4.28673 33.172 4.06835 31.493 3.63184 30.0625C3.23907 28.7755 2.52993 27.6178 2.06641 26.7227C1.57172 25.7673 1.25 24.9492 1.25 24C1.25 23.0858 1.66194 22.0968 2.30273 20.8975C2.88445 19.8087 3.7233 18.4466 4.11914 17.1494C4.57228 15.6644 4.65637 14.1612 4.80566 13.042C4.96294 11.8632 5.19623 10.9262 5.83203 10.0625C6.38932 9.30549 7.22377 8.75504 8.3125 8.17285C9.32432 7.63179 10.6656 7.01749 11.7607 6.19629C12.88 5.35692 13.8513 4.24749 14.6582 3.44336C15.5206 2.58395 16.3079 1.93903 17.2734 1.59863C18.3586 1.21616 19.5355 1.19753 20.9189 1.31152C22.218 1.41858 23.8661 1.66992 25.4326 1.66992C26.9992 1.6699 28.6473 1.41856 29.9463 1.31152Z" stroke="#3A3845" stroke-width="2.5"/>
</svg>
