<svg width="24" height="23" viewBox="0 0 24 23" fill="none" xmlns="http://www.w3.org/2000/svg">
<path d="M5.98115 5.44913H22.2698L19.9509 15.3045C19.6497 16.5841 18.508 17.4885 17.1934 17.4885H11.3486C10.0632 17.4885 8.93898 16.6231 8.61008 15.3806L5.98115 5.44913ZM5.98115 5.44913L4.91884 1.19995H1.73193" stroke="#3A3845" stroke-width="1.5" stroke-linecap="round" stroke-linejoin="round"/>
<path d="M9.16933 22.7999C9.95159 22.7999 10.5857 22.1658 10.5857 21.3836C10.5857 20.6013 9.95159 19.9672 9.16933 19.9672C8.38708 19.9672 7.75293 20.6013 7.75293 21.3836C7.75293 22.1658 8.38708 22.7999 9.16933 22.7999Z" fill="#3A3845"/>
<path d="M19.0849 22.7999C19.8671 22.7999 20.5013 22.1658 20.5013 21.3836C20.5013 20.6013 19.8671 19.9672 19.0849 19.9672C18.3026 19.9672 17.6685 20.6013 17.6685 21.3836C17.6685 22.1658 18.3026 22.7999 19.0849 22.7999Z" fill="#3A3845"/>
</svg>
