<svg width="25" height="24" viewBox="0 0 25 24" fill="none" xmlns="http://www.w3.org/2000/svg">
<path d="M6.48066 5.44913H22.7693L20.4504 15.3045C20.1492 16.5841 19.0075 17.4885 17.6929 17.4885H11.8481C10.5627 17.4885 9.4385 16.6231 9.10959 15.3806L6.48066 5.44913ZM6.48066 5.44913L5.41836 1.19995H2.23145" stroke="white" stroke-width="1.5" stroke-linecap="round" stroke-linejoin="round"/>
<path d="M9.66846 20.639C10.0793 20.639 10.4124 20.9724 10.4126 21.3832C10.4126 21.7941 10.0794 22.1273 9.66846 22.1273C9.2577 22.1271 8.92432 21.794 8.92432 21.3832C8.92452 20.9726 9.25783 20.6392 9.66846 20.639Z" fill="white" stroke="white" stroke-width="1.3447"/>
<path d="M19.5844 22.7999C20.3666 22.7999 21.0008 22.1658 21.0008 21.3836C21.0008 20.6013 20.3666 19.9672 19.5844 19.9672C18.8021 19.9672 18.168 20.6013 18.168 21.3836C18.168 22.1658 18.8021 22.7999 19.5844 22.7999Z" fill="white"/>
</svg>
