<svg width="32" height="32" viewBox="0 0 32 32" fill="none" xmlns="http://www.w3.org/2000/svg">
<path d="M16.3899 22.2044L12.779 22.1369C11.6099 22.1134 10.4379 22.1603 9.29172 21.9167C7.5481 21.5527 7.42458 19.7679 7.29533 18.2708C7.11723 16.166 7.18617 14.0231 7.52227 11.9359C7.71201 10.7648 8.4587 10.066 9.61344 9.98991C13.5115 9.71393 17.4355 9.74664 21.325 9.87539C21.7358 9.88719 22.1494 9.95171 22.5544 10.0251C24.5538 10.3833 24.6026 12.4059 24.7322 14.1085C24.8614 15.8287 24.8068 17.5577 24.5598 19.2662C24.3616 20.6808 23.9824 21.867 22.382 21.9816C20.3769 22.1313 18.4178 22.2519 16.4071 22.2135C16.4072 22.2044 16.3956 22.2044 16.3899 22.2044ZM14.267 18.6231C15.7781 17.7365 17.2603 16.8647 18.7627 15.984C17.2488 15.0974 15.7694 14.2256 14.267 13.345V18.6231Z" fill="#807F86"/>
</svg>
